<svg width="1200" height="1200" viewBox="0 0 1200 1200" fill="none" xmlns="http://www.w3.org/2000/svg">
<g filter="url(#filter0_d_335_58)">
<rect x="100" y="100" width="1000" height="1000" rx="100" fill="#2B2D42"/>
</g>
<g filter="url(#filter1_d_335_58)">
<path d="M282.617 709.922C282.617 714.089 281.836 717.995 280.273 721.641C278.711 725.286 276.562 728.477 273.828 731.211C271.094 733.945 267.904 736.094 264.258 737.656C260.612 739.219 256.771 740 252.734 740C248.568 740 244.661 739.219 241.016 737.656C237.37 736.094 234.18 733.945 231.445 731.211C228.711 728.477 226.562 725.286 225 721.641C223.438 717.995 222.656 714.089 222.656 709.922C222.656 705.885 223.438 702.044 225 698.398C226.562 694.753 228.711 691.562 231.445 688.828C234.18 686.094 237.37 683.945 241.016 682.383C244.661 680.82 248.568 680.039 252.734 680.039C256.771 680.039 260.612 680.82 264.258 682.383C267.904 683.945 271.094 686.094 273.828 688.828C276.562 691.562 278.711 694.753 280.273 698.398C281.836 702.044 282.617 705.885 282.617 709.922ZM282.617 549.57C282.617 553.737 281.836 557.643 280.273 561.289C278.711 564.935 276.562 568.125 273.828 570.859C271.094 573.594 267.904 575.742 264.258 577.305C260.612 578.867 256.771 579.648 252.734 579.648C248.568 579.648 244.661 578.867 241.016 577.305C237.37 575.742 234.18 573.594 231.445 570.859C228.711 568.125 226.562 564.935 225 561.289C223.438 557.643 222.656 553.737 222.656 549.57C222.656 545.534 223.438 541.693 225 538.047C226.562 534.401 228.711 531.211 231.445 528.477C234.18 525.742 237.37 523.594 241.016 522.031C244.661 520.469 248.568 519.688 252.734 519.688C256.771 519.688 260.612 520.469 264.258 522.031C267.904 523.594 271.094 525.742 273.828 528.477C276.562 531.211 278.711 534.401 280.273 538.047C281.836 541.693 282.617 545.534 282.617 549.57ZM393.945 709.922C393.945 714.089 393.164 717.995 391.602 721.641C390.039 725.286 387.891 728.477 385.156 731.211C382.422 733.945 379.232 736.094 375.586 737.656C371.94 739.219 368.099 740 364.062 740C359.896 740 355.99 739.219 352.344 737.656C348.698 736.094 345.508 733.945 342.773 731.211C340.039 728.477 337.891 725.286 336.328 721.641C334.766 717.995 333.984 714.089 333.984 709.922C333.984 705.885 334.766 702.044 336.328 698.398C337.891 694.753 340.039 691.562 342.773 688.828C345.508 686.094 348.698 683.945 352.344 682.383C355.99 680.82 359.896 680.039 364.062 680.039C368.099 680.039 371.94 680.82 375.586 682.383C379.232 683.945 382.422 686.094 385.156 688.828C387.891 691.562 390.039 694.753 391.602 698.398C393.164 702.044 393.945 705.885 393.945 709.922ZM393.945 549.57C393.945 553.737 393.164 557.643 391.602 561.289C390.039 564.935 387.891 568.125 385.156 570.859C382.422 573.594 379.232 575.742 375.586 577.305C371.94 578.867 368.099 579.648 364.062 579.648C359.896 579.648 355.99 578.867 352.344 577.305C348.698 575.742 345.508 573.594 342.773 570.859C340.039 568.125 337.891 564.935 336.328 561.289C334.766 557.643 333.984 553.737 333.984 549.57C333.984 545.534 334.766 541.693 336.328 538.047C337.891 534.401 340.039 531.211 342.773 528.477C345.508 525.742 348.698 523.594 352.344 522.031C355.99 520.469 359.896 519.688 364.062 519.688C368.099 519.688 371.94 520.469 375.586 522.031C379.232 523.594 382.422 525.742 385.156 528.477C387.891 531.211 390.039 534.401 391.602 538.047C393.164 541.693 393.945 545.534 393.945 549.57Z" fill="#D90429"/>
<path d="M707.812 740H667.773V630.039C667.773 620.404 665.951 611.354 662.305 602.891C658.659 594.427 653.711 587.07 647.461 580.82C641.211 574.44 633.854 569.427 625.391 565.781C617.057 562.005 608.073 560.052 598.438 559.922H488.477V740H448.438V440H488.477V520.078H598.438C613.542 520.078 627.734 523.008 641.016 528.867C654.297 534.596 665.885 542.474 675.781 552.5C685.677 562.396 693.49 574.049 699.219 587.461C704.948 600.742 707.812 614.935 707.812 630.039V740ZM987.891 740H857.031C841.927 739.87 827.734 736.94 814.453 731.211C801.172 725.352 789.583 717.474 779.688 707.578C769.922 697.552 762.174 685.898 756.445 672.617C750.716 659.336 747.852 645.143 747.852 630.039C747.852 614.935 750.716 600.742 756.445 587.461C762.174 574.049 769.922 562.396 779.688 552.5C789.583 542.474 801.172 534.596 814.453 528.867C827.734 523.008 841.927 520.078 857.031 520.078H987.891V559.922H857.031C847.396 560.052 838.346 562.005 829.883 565.781C821.549 569.427 814.258 574.44 808.008 580.82C801.758 587.07 796.81 594.427 793.164 602.891C789.648 611.354 787.891 620.404 787.891 630.039C787.891 639.674 789.648 648.724 793.164 657.188C796.81 665.651 801.758 673.073 808.008 679.453C814.258 685.703 821.549 690.716 829.883 694.492C838.346 698.138 847.396 699.961 857.031 699.961H987.891V740Z" fill="#EDF2F4"/>
</g>
<defs>
<filter id="filter0_d_335_58" x="96" y="100" width="1008" height="1008" filterUnits="userSpaceOnUse" color-interpolation-filters="sRGB">
<feFlood flood-opacity="0" result="BackgroundImageFix"/>
<feColorMatrix in="SourceAlpha" type="matrix" values="0 0 0 0 0 0 0 0 0 0 0 0 0 0 0 0 0 0 127 0" result="hardAlpha"/>
<feOffset dy="4"/>
<feGaussianBlur stdDeviation="2"/>
<feComposite in2="hardAlpha" operator="out"/>
<feColorMatrix type="matrix" values="0 0 0 0 0 0 0 0 0 0 0 0 0 0 0 0 0 0 0.25 0"/>
<feBlend mode="normal" in2="BackgroundImageFix" result="effect1_dropShadow_335_58"/>
<feBlend mode="normal" in="SourceGraphic" in2="effect1_dropShadow_335_58" result="shape"/>
</filter>
<filter id="filter1_d_335_58" x="218.656" y="440" width="773.234" height="308" filterUnits="userSpaceOnUse" color-interpolation-filters="sRGB">
<feFlood flood-opacity="0" result="BackgroundImageFix"/>
<feColorMatrix in="SourceAlpha" type="matrix" values="0 0 0 0 0 0 0 0 0 0 0 0 0 0 0 0 0 0 127 0" result="hardAlpha"/>
<feOffset dy="4"/>
<feGaussianBlur stdDeviation="2"/>
<feComposite in2="hardAlpha" operator="out"/>
<feColorMatrix type="matrix" values="0 0 0 0 0 0 0 0 0 0 0 0 0 0 0 0 0 0 0.25 0"/>
<feBlend mode="normal" in2="BackgroundImageFix" result="effect1_dropShadow_335_58"/>
<feBlend mode="normal" in="SourceGraphic" in2="effect1_dropShadow_335_58" result="shape"/>
</filter>
</defs>
</svg>
