<svg width="1200" height="1200" viewBox="0 0 1200 1200" fill="none" xmlns="http://www.w3.org/2000/svg">
<g filter="url(#filter0_d_335_62)">
<rect x="100" y="100" width="1000" height="1000" rx="100" fill="#2B2D42"/>
</g>
<g filter="url(#filter1_d_335_62)">
<path d="M596.484 740H556.445V630.039C556.445 620.404 554.622 611.354 550.977 602.891C547.331 594.427 542.383 587.07 536.133 580.82C529.883 574.44 522.526 569.427 514.062 565.781C505.729 562.005 496.745 560.052 487.109 559.922H377.148V740H337.109V440H377.148V520.078H487.109C502.214 520.078 516.406 523.008 529.688 528.867C542.969 534.596 554.557 542.474 564.453 552.5C574.349 562.396 582.161 574.049 587.891 587.461C593.62 600.742 596.484 614.935 596.484 630.039V740ZM876.562 740H745.703C730.599 739.87 716.406 736.94 703.125 731.211C689.844 725.352 678.255 717.474 668.359 707.578C658.594 697.552 650.846 685.898 645.117 672.617C639.388 659.336 636.523 645.143 636.523 630.039C636.523 614.935 639.388 600.742 645.117 587.461C650.846 574.049 658.594 562.396 668.359 552.5C678.255 542.474 689.844 534.596 703.125 528.867C716.406 523.008 730.599 520.078 745.703 520.078H876.562V559.922H745.703C736.068 560.052 727.018 562.005 718.555 565.781C710.221 569.427 702.93 574.44 696.68 580.82C690.43 587.07 685.482 594.427 681.836 602.891C678.32 611.354 676.562 620.404 676.562 630.039C676.562 639.674 678.32 648.724 681.836 657.188C685.482 665.651 690.43 673.073 696.68 679.453C702.93 685.703 710.221 690.716 718.555 694.492C727.018 698.138 736.068 699.961 745.703 699.961H876.562V740Z" fill="#EDF2F4"/>
</g>
<defs>
<filter id="filter0_d_335_62" x="96" y="100" width="1008" height="1008" filterUnits="userSpaceOnUse" color-interpolation-filters="sRGB">
<feFlood flood-opacity="0" result="BackgroundImageFix"/>
<feColorMatrix in="SourceAlpha" type="matrix" values="0 0 0 0 0 0 0 0 0 0 0 0 0 0 0 0 0 0 127 0" result="hardAlpha"/>
<feOffset dy="4"/>
<feGaussianBlur stdDeviation="2"/>
<feComposite in2="hardAlpha" operator="out"/>
<feColorMatrix type="matrix" values="0 0 0 0 0 0 0 0 0 0 0 0 0 0 0 0 0 0 0.25 0"/>
<feBlend mode="normal" in2="BackgroundImageFix" result="effect1_dropShadow_335_62"/>
<feBlend mode="normal" in="SourceGraphic" in2="effect1_dropShadow_335_62" result="shape"/>
</filter>
<filter id="filter1_d_335_62" x="333.109" y="440" width="547.453" height="308" filterUnits="userSpaceOnUse" color-interpolation-filters="sRGB">
<feFlood flood-opacity="0" result="BackgroundImageFix"/>
<feColorMatrix in="SourceAlpha" type="matrix" values="0 0 0 0 0 0 0 0 0 0 0 0 0 0 0 0 0 0 127 0" result="hardAlpha"/>
<feOffset dy="4"/>
<feGaussianBlur stdDeviation="2"/>
<feComposite in2="hardAlpha" operator="out"/>
<feColorMatrix type="matrix" values="0 0 0 0 0 0 0 0 0 0 0 0 0 0 0 0 0 0 0.25 0"/>
<feBlend mode="normal" in2="BackgroundImageFix" result="effect1_dropShadow_335_62"/>
<feBlend mode="normal" in="SourceGraphic" in2="effect1_dropShadow_335_62" result="shape"/>
</filter>
</defs>
</svg>
