<svg fill="none" xmlns="http://www.w3.org/2000/svg" viewBox="0 0 2213 800">
  <path d="M812 121 464 377c-3 2-4 5-4 7l-37 387c-1 9 11 14 17 7l221-237 2-3 164-405c4-10-7-18-15-12ZM28 121l348 256c3 2 4 5 4 7l37 387c1 9-11 14-17 7L179 541l-2-3L13 133c-4-10 7-18 15-12ZM422 1l390 92c10 3 11 15 2 19L424 298h-8L26 112c-9-4-8-16 2-19L418 1h4Z" fill="#EDF2F4"/>
  <path d="M869 438a14 14 0 0 1-4 10 15 15 0 0 1-16 3 15 15 0 0 1-9-13l1-6a15 15 0 0 1 24-4 15 15 0 0 1 4 10Zm0-77a14 14 0 0 1-4 10 15 15 0 0 1-16 3 15 15 0 0 1-9-13l1-6a15 15 0 0 1 24-4 15 15 0 0 1 4 10ZM923 438a14 14 0 0 1-5 10 15 15 0 0 1-15 3 15 15 0 0 1-9-13l1-6a15 15 0 0 1 19-7 15 15 0 0 1 9 13Zm0-77a14 14 0 0 1-5 10 15 15 0 0 1-15 3 15 15 0 0 1-9-13l1-6a15 15 0 0 1 19-8 15 15 0 0 1 9 14Z" fill="#EF233C"/>
  <path d="M1075 452h-20v-52a33 33 0 0 0-10-24c-3-3-6-6-10-7-4-2-9-3-13-3h-53v86h-20V308h20v39h53a53 53 0 0 1 53 53v52ZM1224 457a33 33 0 0 1-10 24 33 33 0 0 1-24 10h-77v-19h77l6-1a15 15 0 0 0 9-14v-5h-53a51 51 0 0 1-38-15l-11-17c-3-6-4-13-4-20v-53h19v53a34 34 0 0 0 10 23c3 3 6 6 11 7 4 2 8 3 13 3h53v-86h19v110ZM1377 400a52 52 0 0 1-15 37c-5 5-11 8-17 11-7 3-13 4-21 4h-43v-19h43a33 33 0 0 0 24-10l7-10 3-13c0-5-1-9-3-14a33 33 0 0 0-31-20h-53v125h-19V347h72a53 53 0 0 1 53 53ZM1522 380a33 33 0 0 1-10 24 33 33 0 0 1-24 10h-74a36 36 0 0 0 12 14 33 33 0 0 0 18 5h63v19h-63a53 53 0 0 1-53-52c0-8 2-15 4-21a54 54 0 0 1 28-28c7-3 14-4 21-4h44a33 33 0 0 1 24 9 33 33 0 0 1 10 24Zm-34 15 5-1a15 15 0 0 0 9-14l-1-5a14 14 0 0 0-8-8l-5-1h-44a32 32 0 0 0-22 8 34 34 0 0 0-11 21h77ZM1646 366h-72l-6 1a15 15 0 0 0-9 13v72h-19v-72a33 33 0 0 1 10-24 34 34 0 0 1 24-9h72v19Z" fill="#EDF2F4"/>
  <path d="M1771 452h-63a53 53 0 0 1-53-52 54 54 0 0 1 32-49c7-3 13-4 21-4h63v19h-63a33 33 0 0 0-24 10 34 34 0 0 0 24 57h63v19ZM1915 452h-72a51 51 0 0 1-37-15c-5-5-9-11-12-17-2-6-4-13-4-20v-53h20v53a34 34 0 0 0 20 30c4 2 8 3 13 3h53v-86h19v105ZM2068 400a51 51 0 0 1-15 37c-5 5-10 8-17 11-6 3-13 4-20 4h-73V308h20v125h53a32 32 0 0 0 23-10 35 35 0 0 0 10-23 33 33 0 0 0-10-24c-3-3-6-6-10-7-4-2-9-3-13-3h-44v-19h44a53 53 0 0 1 53 53ZM2213 380a33 33 0 0 1-10 24 34 34 0 0 1-24 10h-74a36 36 0 0 0 12 14 33 33 0 0 0 18 5h64v19h-64a53 53 0 0 1-52-52c0-8 1-15 4-21a54 54 0 0 1 28-28c6-3 13-4 20-4h44a33 33 0 0 1 24 9 33 33 0 0 1 10 24Zm-34 15a14 14 0 0 0 10-5 15 15 0 0 0 5-10 14 14 0 0 0-5-10l-4-3-6-1h-44a32 32 0 0 0-22 8 34 34 0 0 0-11 21h77Z" fill="#D90429"/>
</svg>
