<svg fill="none" xmlns="http://www.w3.org/2000/svg" viewBox="0 0 552 211">
  <path d="M42 189a21 21 0 0 1-6 15 21 21 0 0 1-23 5 21 21 0 0 1-13-20l2-8a21 21 0 0 1 27-11 21 21 0 0 1 13 19Zm0-112a21 21 0 0 1-6 15 21 21 0 0 1-23 4A21 21 0 0 1 0 77l2-8a21 21 0 0 1 27-11 21 21 0 0 1 13 19ZM120 189a21 21 0 0 1-6 15 21 21 0 0 1-23 5 21 21 0 0 1-13-20l2-8a21 21 0 0 1 28-11 21 21 0 0 1 12 19Zm0-112a21 21 0 0 1-6 15 21 21 0 0 1-23 4 21 21 0 0 1-13-19l2-8a21 21 0 0 1 28-11 21 21 0 0 1 12 19Z" fill="#EF233C"/>
  <path d="M342 210h-28v-77a48 48 0 0 0-15-34 47 47 0 0 0-34-15h-78v126h-28V0h28v56h78a77 77 0 0 1 77 77v77Z" fill="#2B2D42"/>
  <path d="M539 210h-93a77 77 0 0 1-76-77 78 78 0 0 1 47-71c9-4 19-6 29-6h93v28h-93a48 48 0 0 0-34 15 49 49 0 0 0 15 79c6 3 13 4 19 4h93v28Z" fill="#D90429"/>
</svg>
