<svg fill="none" xmlns="http://www.w3.org/2000/svg" viewBox="0 0 2001 267">
  <path d="M43 189a21 21 0 0 1-6 15 21 21 0 0 1-24 5 21 21 0 0 1-12-20l1-8a21 21 0 0 1 28-11 21 21 0 0 1 13 19Zm0-112a21 21 0 0 1-6 15 21 21 0 0 1-24 4A21 21 0 0 1 1 77l1-8a21 21 0 0 1 28-11 21 21 0 0 1 13 19ZM121 189a21 21 0 0 1-6 15 21 21 0 0 1-23 5 21 21 0 0 1-13-20l1-8a21 21 0 0 1 28-11 21 21 0 0 1 13 19Zm0-112a21 21 0 0 1-6 15 21 21 0 0 1-23 4 21 21 0 0 1-13-19l1-8a21 21 0 0 1 28-11 21 21 0 0 1 13 19Z" fill="#EF233C"/>
  <path d="M342 210h-28v-77a48 48 0 0 0-14-34c-5-5-10-8-16-11-6-2-12-4-19-4h-77v126h-28V0h28v56h77a77 77 0 0 1 77 77v77ZM560 217a48 48 0 0 1-14 35 48 48 0 0 1-35 15H398v-28h113a20 20 0 0 0 15-7 21 21 0 0 0 6-15v-7h-77a75 75 0 0 1-55-22c-7-7-12-15-16-25-4-9-6-19-6-30V56h28v77a49 49 0 0 0 14 35 50 50 0 0 0 34 15h78V55h28v161ZM783 133a75 75 0 0 1-23 55c-6 7-15 12-24 16s-19 6-30 6h-63v-28h63a49 49 0 0 0 35-14l10-16c3-6 4-12 4-19 0-6-1-13-4-19a49 49 0 0 0-45-30h-77v183h-28V56h105a77 77 0 0 1 77 77ZM994 105a48 48 0 0 1-15 35 49 49 0 0 1-35 14H837a52 52 0 0 0 17 21 48 48 0 0 0 27 7h92v28h-92a77 77 0 0 1-77-77 79 79 0 0 1 47-71c9-4 19-6 30-6h63a48 48 0 0 1 35 15 48 48 0 0 1 15 34Zm-50 21a20 20 0 0 0 15-6 21 21 0 0 0 6-15l-1-8a21 21 0 0 0-11-11l-9-2h-63a47 47 0 0 0-33 12 49 49 0 0 0-16 30h112ZM1175 84h-106l-8 2a21 21 0 0 0-13 19v105h-28V105a48 48 0 0 1 15-34 50 50 0 0 1 34-15h106v28Z" fill="#2B2D42"/>
  <path d="M1357 210h-92a77 77 0 0 1-77-77 78 78 0 0 1 47-71c9-4 19-6 30-6h92v28h-92a48 48 0 0 0-35 15 49 49 0 0 0 16 80c6 2 12 3 19 3h92v28ZM1567 210h-105a75 75 0 0 1-55-22c-6-7-12-15-16-25-4-9-6-19-6-30V56h28v77a49 49 0 0 0 49 49h77V56h28v154ZM1790 133a79 79 0 0 1-47 71c-9 4-19 6-30 6h-105V0h28v182h77a47 47 0 0 0 35-14 51 51 0 0 0 14-35 47 47 0 0 0-14-34c-4-5-10-8-16-11-5-2-12-4-19-4h-63V56h63a77 77 0 0 1 77 77ZM2001 105a48 48 0 0 1-14 35 49 49 0 0 1-35 14h-108a52 52 0 0 0 18 21 48 48 0 0 0 26 7h92v28h-92a77 77 0 0 1-77-77 79 79 0 0 1 47-71c9-4 19-6 30-6h64a48 48 0 0 1 35 15 48 48 0 0 1 14 34Zm-49 21a20 20 0 0 0 15-6 21 21 0 0 0 6-15l-2-8a21 21 0 0 0-19-13h-64a47 47 0 0 0-32 12 50 50 0 0 0-16 30h112Z" fill="#D90429"/>
</svg>
