<svg width="1280" height="640" viewBox="0 0 1280 640" fill="none" xmlns="http://www.w3.org/2000/svg">
<rect width="1280" height="640" fill="#2B2D42"/>
<path d="M161.084 347.667C161.084 349.128 160.81 350.498 160.26 351.777C159.711 353.056 158.955 354.174 157.994 355.133C157.032 356.092 155.911 356.846 154.629 357.394C153.347 357.942 151.996 358.216 150.577 358.216C149.111 358.216 147.738 357.942 146.456 357.394C145.174 356.846 144.052 356.092 143.091 355.133C142.129 354.174 141.374 353.056 140.824 351.777C140.275 350.498 140 349.128 140 347.667C140 346.251 140.275 344.904 140.824 343.625C141.374 342.347 142.129 341.228 143.091 340.269C144.052 339.31 145.174 338.556 146.456 338.008C147.738 337.46 149.111 337.186 150.577 337.186C151.996 337.186 153.347 337.46 154.629 338.008C155.911 338.556 157.032 339.31 157.994 340.269C158.955 341.228 159.711 342.347 160.26 343.625C160.81 344.904 161.084 346.251 161.084 347.667ZM161.084 291.428C161.084 292.89 160.81 294.26 160.26 295.538C159.711 296.817 158.955 297.936 157.994 298.895C157.032 299.854 155.911 300.607 154.629 301.155C153.347 301.703 151.996 301.977 150.577 301.977C149.111 301.977 147.738 301.703 146.456 301.155C145.174 300.607 144.052 299.854 143.091 298.895C142.129 297.936 141.374 296.817 140.824 295.538C140.275 294.26 140 292.89 140 291.428C140 290.013 140.275 288.666 140.824 287.387C141.374 286.108 142.129 284.989 143.091 284.03C144.052 283.071 145.174 282.318 146.456 281.77C147.738 281.222 149.111 280.948 150.577 280.948C151.996 280.948 153.347 281.222 154.629 281.77C155.911 282.318 157.032 283.071 157.994 284.03C158.955 284.989 159.711 286.108 160.26 287.387C160.81 288.666 161.084 290.013 161.084 291.428Z" fill="#EF233C"/>
<path d="M200.231 347.667C200.231 349.128 199.957 350.498 199.407 351.777C198.858 353.056 198.102 354.174 197.141 355.133C196.179 356.092 195.057 356.846 193.775 357.394C192.493 357.942 191.143 358.216 189.723 358.216C188.258 358.216 186.885 357.942 185.603 357.394C184.321 356.846 183.199 356.092 182.237 355.133C181.276 354.174 180.52 353.056 179.971 351.777C179.422 350.498 179.147 349.128 179.147 347.667C179.147 346.251 179.422 344.904 179.971 343.625C180.52 342.347 181.276 341.228 182.237 340.269C183.199 339.31 184.321 338.556 185.603 338.008C186.885 337.46 188.258 337.186 189.723 337.186C191.143 337.186 192.493 337.46 193.775 338.008C195.057 338.556 196.179 339.31 197.141 340.269C198.102 341.228 198.858 342.347 199.407 343.625C199.957 344.904 200.231 346.251 200.231 347.667ZM200.231 291.428C200.231 292.89 199.957 294.26 199.407 295.538C198.858 296.817 198.102 297.936 197.141 298.895C196.179 299.854 195.057 300.607 193.775 301.155C192.493 301.703 191.143 301.977 189.723 301.977C188.258 301.977 186.885 301.703 185.603 301.155C184.321 300.607 183.199 299.854 182.237 298.895C181.276 297.936 180.52 296.817 179.971 295.538C179.422 294.26 179.147 292.89 179.147 291.428C179.147 290.013 179.422 288.666 179.971 287.387C180.52 286.108 181.276 284.989 182.237 284.03C183.199 283.071 184.321 282.318 185.603 281.77C186.885 281.222 188.258 280.948 189.723 280.948C191.143 280.948 192.493 281.222 193.775 281.77C195.057 282.318 196.179 283.071 197.141 284.03C198.102 284.989 198.858 286.108 199.407 287.387C199.957 288.666 200.231 290.013 200.231 291.428Z" fill="#EF233C"/>
<path d="M310.843 358.216H296.764V319.65C296.764 316.271 296.123 313.097 294.841 310.129C293.559 307.161 291.819 304.58 289.621 302.388C287.423 300.151 284.836 298.393 281.86 297.114C278.93 295.79 275.771 295.105 272.383 295.059H233.717V358.216H219.637V253H233.717V281.085H272.383C277.694 281.085 282.685 282.112 287.355 284.167C292.025 286.177 296.1 288.94 299.579 292.456C303.059 295.927 305.806 300.014 307.821 304.717C309.836 309.375 310.843 314.353 310.843 319.65V358.216Z" fill="#EDF2F4"/>
<path d="M419.7 361.709C419.7 365.134 419.059 368.331 417.777 371.299C416.495 374.268 414.732 376.871 412.489 379.108C410.291 381.346 407.681 383.104 404.659 384.383C401.683 385.661 398.5 386.301 395.112 386.301H338.864V372.258H395.112C396.531 372.258 397.883 371.984 399.165 371.436C400.447 370.888 401.569 370.135 402.53 369.176C403.492 368.217 404.247 367.098 404.796 365.819C405.346 364.541 405.621 363.171 405.621 361.709V358.216H366.953C361.642 358.216 356.652 357.211 351.981 355.202C347.311 353.147 343.236 350.384 339.757 346.913C336.323 343.397 333.598 339.31 331.584 334.652C329.569 329.948 328.562 324.948 328.562 319.65V281.085H342.641V319.65C342.641 323.03 343.259 326.204 344.495 329.172C345.777 332.095 347.517 334.675 349.715 336.912C351.913 339.104 354.477 340.863 357.407 342.187C360.383 343.466 363.565 344.128 366.953 344.173H405.621V281.085H419.7V361.709Z" fill="#EDF2F4"/>
<path d="M531.165 319.65C531.165 324.948 530.158 329.948 528.143 334.652C526.129 339.31 523.382 343.397 519.902 346.913C516.422 350.384 512.347 353.147 507.677 355.202C503.007 357.211 498.016 358.216 492.705 358.216H461.113V344.173H492.705C496.093 344.128 499.253 343.466 502.183 342.187C505.159 340.863 507.746 339.104 509.944 336.912C512.141 334.675 513.881 332.095 515.163 329.172C516.445 326.204 517.086 323.03 517.086 319.65C517.086 316.271 516.445 313.097 515.163 310.129C513.881 307.115 512.141 304.512 509.944 302.32C507.746 300.082 505.159 298.324 502.183 297.045C499.253 295.721 496.093 295.059 492.705 295.059H454.039V386.301H439.96V281.085H492.705C498.016 281.131 503.007 282.181 507.677 284.236C512.347 286.245 516.422 289.008 519.902 292.524C523.382 295.995 526.129 300.059 528.143 304.717C530.158 309.375 531.165 314.353 531.165 319.65Z" fill="#EDF2F4"/>
<path d="M636.45 305.608C636.45 309.033 635.809 312.23 634.527 315.198C633.245 318.166 631.482 320.769 629.239 323.007C627.041 325.199 624.431 326.934 621.409 328.213C618.433 329.492 615.251 330.131 611.863 330.131H557.95C558.957 332.186 560.216 334.081 561.727 335.816C563.238 337.552 564.932 339.036 566.81 340.269C568.687 341.502 570.724 342.461 572.922 343.146C575.166 343.831 577.501 344.173 579.927 344.173H625.942V358.216H579.927C574.616 358.17 569.625 357.143 564.955 355.133C560.285 353.078 556.21 350.316 552.73 346.845C549.297 343.329 546.572 339.241 544.558 334.583C542.543 329.925 541.536 324.948 541.536 319.65C541.536 314.353 542.543 309.375 544.558 304.717C546.572 300.059 549.297 295.995 552.73 292.524C556.21 289.008 560.285 286.245 564.955 284.236C569.625 282.181 574.616 281.131 579.927 281.085H611.863C615.251 281.085 618.433 281.724 621.409 283.003C624.431 284.282 627.041 286.04 629.239 288.277C631.482 290.469 633.245 293.05 634.527 296.018C635.809 298.986 636.45 302.183 636.45 305.608ZM611.863 316.157C613.282 316.157 614.633 315.883 615.915 315.335C617.197 314.787 618.319 314.033 619.28 313.074C620.242 312.115 620.997 310.997 621.547 309.718C622.096 308.439 622.371 307.069 622.371 305.608C622.371 304.192 622.096 302.845 621.547 301.566C620.997 300.288 620.242 299.169 619.28 298.21C618.319 297.251 617.197 296.497 615.915 295.949C614.633 295.356 613.282 295.059 611.863 295.059H579.927C576.814 295.059 573.884 295.607 571.136 296.703C568.435 297.799 566.008 299.306 563.856 301.224C561.75 303.096 559.988 305.334 558.568 307.937C557.195 310.494 556.302 313.234 555.89 316.157H611.863Z" fill="#EDF2F4"/>
<path d="M727.103 295.059H674.358C672.893 295.059 671.519 295.356 670.237 295.949C668.955 296.497 667.834 297.251 666.872 298.21C665.911 299.169 665.155 300.288 664.606 301.566C664.056 302.845 663.782 304.192 663.782 305.608V358.216H649.705V305.608C649.705 302.183 650.345 298.986 651.627 296.018C652.909 293.05 654.67 290.469 656.914 288.277C659.157 286.04 661.767 284.282 664.743 283.003C667.719 281.724 670.924 281.085 674.358 281.085H727.103V295.059Z" fill="#EDF2F4"/>
<path d="M817.965 358.216H771.951C766.639 358.17 761.649 357.143 756.979 355.133C752.309 353.078 748.234 350.316 744.754 346.845C741.32 343.329 738.596 339.241 736.581 334.583C734.567 329.925 733.559 324.948 733.559 319.65C733.559 314.353 734.567 309.375 736.581 304.717C738.596 300.014 741.32 295.927 744.754 292.456C748.234 288.94 752.309 286.177 756.979 284.167C761.649 282.112 766.639 281.085 771.951 281.085H817.965V295.059H771.951C768.563 295.105 765.38 295.79 762.404 297.114C759.474 298.393 756.91 300.151 754.712 302.388C752.515 304.58 750.775 307.161 749.493 310.129C748.256 313.097 747.638 316.271 747.638 319.65C747.638 323.03 748.256 326.204 749.493 329.172C750.775 332.14 752.515 334.743 754.712 336.981C756.91 339.173 759.474 340.931 762.404 342.255C765.38 343.534 768.563 344.173 771.951 344.173H817.965V358.216Z" fill="#D90429"/>
<path d="M923.25 358.216H870.505C865.193 358.216 860.203 357.211 855.533 355.202C850.863 353.147 846.788 350.384 843.308 346.913C839.874 343.397 837.15 339.31 835.135 334.652C833.121 329.948 832.113 324.948 832.113 319.65V281.085H846.192V319.65C846.192 323.03 846.81 326.204 848.047 329.172C849.329 332.095 851.069 334.675 853.266 336.912C855.464 339.104 858.028 340.863 860.958 342.187C863.934 343.466 867.116 344.128 870.505 344.173H909.171V281.085H923.25V358.216Z" fill="#D90429"/>
<path d="M1034.72 319.65C1034.72 324.948 1033.71 329.925 1031.69 334.583C1029.68 339.241 1026.93 343.329 1023.45 346.845C1019.97 350.316 1015.9 353.078 1011.23 355.133C1006.56 357.143 1001.57 358.17 996.255 358.216H943.51V253H957.589V344.173H996.255C999.644 344.173 1002.8 343.534 1005.73 342.255C1008.71 340.931 1011.3 339.173 1013.49 336.981C1015.69 334.743 1017.43 332.14 1018.71 329.172C1020 326.204 1020.64 323.03 1020.64 319.65C1020.64 316.271 1020 313.097 1018.71 310.129C1017.43 307.161 1015.69 304.58 1013.49 302.388C1011.3 300.151 1008.71 298.393 1005.73 297.114C1002.8 295.79 999.644 295.105 996.255 295.059H964.663V281.085H996.255C1001.57 281.085 1006.56 282.112 1011.23 284.167C1015.9 286.177 1019.97 288.94 1023.45 292.456C1026.93 295.927 1029.68 300.014 1031.69 304.717C1033.71 309.375 1034.72 314.353 1034.72 319.65Z" fill="#D90429"/>
<path d="M1140 305.608C1140 309.033 1139.36 312.23 1138.08 315.198C1136.79 318.166 1135.03 320.769 1132.79 323.007C1130.59 325.199 1127.98 326.934 1124.96 328.213C1121.98 329.492 1118.8 330.131 1115.41 330.131H1061.5C1062.51 332.186 1063.77 334.081 1065.28 335.816C1066.79 337.552 1068.48 339.036 1070.36 340.269C1072.24 341.502 1074.27 342.461 1076.47 343.146C1078.72 343.831 1081.05 344.173 1083.48 344.173H1129.49V358.216H1083.48C1078.17 358.17 1073.18 357.143 1068.51 355.133C1063.84 353.078 1059.76 350.316 1056.28 346.845C1052.85 343.329 1050.12 339.241 1048.11 334.583C1046.09 329.925 1045.09 324.948 1045.09 319.65C1045.09 314.353 1046.09 309.375 1048.11 304.717C1050.12 300.059 1052.85 295.995 1056.28 292.524C1059.76 289.008 1063.84 286.245 1068.51 284.236C1073.18 282.181 1078.17 281.131 1083.48 281.085H1115.41C1118.8 281.085 1121.98 281.724 1124.96 283.003C1127.98 284.282 1130.59 286.04 1132.79 288.277C1135.03 290.469 1136.79 293.05 1138.08 296.018C1139.36 298.986 1140 302.183 1140 305.608ZM1115.41 316.157C1116.83 316.157 1118.18 315.883 1119.47 315.335C1120.75 314.787 1121.87 314.033 1122.83 313.074C1123.79 312.115 1124.55 310.997 1125.1 309.718C1125.65 308.439 1125.92 307.069 1125.92 305.608C1125.92 304.192 1125.65 302.845 1125.1 301.566C1124.55 300.288 1123.79 299.169 1122.83 298.21C1121.87 297.251 1120.75 296.497 1119.47 295.949C1118.18 295.356 1116.83 295.059 1115.41 295.059H1083.48C1080.36 295.059 1077.43 295.607 1074.69 296.703C1071.99 297.799 1069.56 299.306 1067.41 301.224C1065.3 303.096 1063.54 305.334 1062.12 307.937C1060.74 310.494 1059.85 313.234 1059.44 316.157H1115.41Z" fill="#D90429"/>
</svg>
